<?xml version="1.0" standalone="no"?>
<!DOCTYPE svg PUBLIC "-//W3C//DTD SVG 20010904//EN"
 "http://www.w3.org/TR/2001/REC-SVG-20010904/DTD/svg10.dtd">
<svg version="1.0" xmlns="http://www.w3.org/2000/svg"
 width="752.000000pt" height="752.000000pt" viewBox="0 0 752.000000 752.000000"
 preserveAspectRatio="xMidYMid meet">

<g transform="translate(0.000000,752.000000) scale(0.100000,-0.100000)"
fill="#000000" stroke="none">
<path d="M2095 5533 c-71 -17 -125 -109 -106 -179 12 -44 51 -87 94 -103 16
-6 97 -11 181 -11 149 0 155 -1 207 -29 68 -36 91 -74 123 -211 74 -308 100
-607 116 -1335 8 -345 15 -485 25 -527 45 -181 186 -330 367 -389 l73 -24 982
0 c976 0 982 0 1009 21 51 37 69 71 69 127 0 38 -6 61 -22 83 -48 68 10 64
-1041 64 -824 0 -955 2 -993 15 -105 37 -158 118 -167 251 -2 46 -3 84 -1 84
3 0 32 -10 64 -22 l60 -23 835 -3 c603 -2 850 0 890 8 30 7 89 28 130 47 98
47 213 159 258 253 27 55 269 902 287 1005 8 42 -31 114 -74 139 -67 39 -144
21 -193 -45 -11 -14 -74 -226 -143 -477 -68 -248 -131 -467 -140 -486 -23 -48
-82 -105 -135 -130 -44 -21 -55 -21 -829 -24 -864 -3 -848 -4 -924 59 -21 17
-49 54 -64 82 -24 48 -26 64 -34 262 -27 661 -100 1121 -206 1302 -64 110
-185 191 -313 212 -64 11 -346 13 -385 4z"/>
<path d="M3633 5040 c-57 -25 -83 -69 -83 -139 l0 -54 125 -126 125 -127 -96
-94 c-134 -132 -154 -161 -154 -223 0 -96 64 -154 159 -145 52 5 55 7 177 129
l124 124 117 -117 c65 -64 128 -121 140 -127 34 -17 105 -13 137 8 45 30 66
70 66 126 0 63 -7 74 -141 210 l-109 110 111 110 c61 61 117 122 125 137 32
60 7 160 -47 188 -94 51 -135 36 -281 -108 l-118 -116 -113 112 c-106 104
-161 142 -204 142 -10 0 -37 -9 -60 -20z"/>
<path d="M3113 2569 c-88 -17 -168 -80 -214 -169 -34 -67 -33 -176 3 -245 101
-193 347 -228 487 -69 53 60 74 127 69 212 -10 179 -170 305 -345 271z"/>
<path d="M4743 2570 c-278 -56 -330 -427 -77 -551 54 -27 78 -33 128 -32 114
1 207 56 261 154 27 48 30 63 30 139 0 77 -3 90 -31 140 -62 110 -193 173
-311 150z"/>
</g>
</svg>
